<mxfile host="app.diagrams.net" modified="2020-11-17T12:56:17.300Z" agent="5.0 (Windows)" etag="SRURVM6cPO38oqX9TjpF" version="13.9.9" type="github">
  <diagram id="xpvj0pbj2Anr4bd4EY7O" name="Page-1">
    <mxGraphModel dx="1021" dy="498" grid="1" gridSize="10" guides="1" tooltips="1" connect="1" arrows="1" fold="1" page="1" pageScale="1" pageWidth="827" pageHeight="1169" math="0" shadow="0">
      <root>
        <mxCell id="0" />
        <mxCell id="1" parent="0" />
        <mxCell id="9r-fHAgfjosAmpNAqf8q-1" value="Modelo&amp;nbsp; conceptual" style="text;html=1;align=center;verticalAlign=middle;resizable=0;points=[];autosize=1;fontSize=16;fontStyle=1" vertex="1" parent="1">
          <mxGeometry x="40" y="40" width="160" height="20" as="geometry" />
        </mxCell>
        <mxCell id="9r-fHAgfjosAmpNAqf8q-2" value="1) Entidades: trabajador, departamento" style="text;html=1;align=center;verticalAlign=middle;resizable=0;points=[];autosize=1;fontSize=14;" vertex="1" parent="1">
          <mxGeometry x="35" y="80" width="260" height="20" as="geometry" />
        </mxCell>
        <mxCell id="9r-fHAgfjosAmpNAqf8q-3" value="&lt;div&gt;2) Agrupar entidades y atributos:&lt;/div&gt;" style="text;html=1;align=center;verticalAlign=middle;resizable=0;points=[];autosize=1;fontSize=14;" vertex="1" parent="1">
          <mxGeometry x="32" y="110" width="220" height="20" as="geometry" />
        </mxCell>
        <mxCell id="9r-fHAgfjosAmpNAqf8q-4" value="&lt;div align=&quot;left&quot;&gt;trabajador(nombre, rut, direccion)&lt;/div&gt;&lt;div align=&quot;left&quot;&gt;departamento(nombre_d)&lt;/div&gt;" style="text;html=1;align=center;verticalAlign=middle;resizable=0;points=[];autosize=1;fontSize=14;" vertex="1" parent="1">
          <mxGeometry x="72" y="141" width="230" height="40" as="geometry" />
        </mxCell>
        <mxCell id="9r-fHAgfjosAmpNAqf8q-22" value="trabajador" style="swimlane;childLayout=stackLayout;horizontal=1;startSize=30;horizontalStack=0;rounded=1;fontSize=14;fontStyle=0;strokeWidth=2;resizeParent=0;resizeLast=1;shadow=0;dashed=0;align=center;" vertex="1" parent="1">
          <mxGeometry x="40" y="465" width="160" height="120" as="geometry" />
        </mxCell>
        <mxCell id="9r-fHAgfjosAmpNAqf8q-23" value="nombre[PK]&#xa;rut&#xa;direccion" style="align=left;strokeColor=none;fillColor=none;spacingLeft=4;fontSize=12;verticalAlign=top;resizable=0;rotatable=0;part=1;" vertex="1" parent="9r-fHAgfjosAmpNAqf8q-22">
          <mxGeometry y="30" width="160" height="90" as="geometry" />
        </mxCell>
        <mxCell id="9r-fHAgfjosAmpNAqf8q-25" value="departamento" style="swimlane;childLayout=stackLayout;horizontal=1;startSize=30;horizontalStack=0;rounded=1;fontSize=14;fontStyle=0;strokeWidth=2;resizeParent=0;resizeLast=1;shadow=0;dashed=0;align=center;" vertex="1" parent="1">
          <mxGeometry x="550" y="465" width="160" height="120" as="geometry" />
        </mxCell>
        <mxCell id="9r-fHAgfjosAmpNAqf8q-26" value="nombre_depto&#xa;id[PK]&#xa;" style="align=left;strokeColor=none;fillColor=none;spacingLeft=4;fontSize=12;verticalAlign=top;resizable=0;rotatable=0;part=1;" vertex="1" parent="9r-fHAgfjosAmpNAqf8q-25">
          <mxGeometry y="30" width="160" height="90" as="geometry" />
        </mxCell>
        <mxCell id="9r-fHAgfjosAmpNAqf8q-27" value="liquidaciones" style="swimlane;childLayout=stackLayout;horizontal=1;startSize=30;horizontalStack=0;rounded=1;fontSize=14;fontStyle=0;strokeWidth=2;resizeParent=0;resizeLast=1;shadow=0;dashed=0;align=center;" vertex="1" parent="1">
          <mxGeometry x="290" y="480" width="200" height="70" as="geometry" />
        </mxCell>
        <mxCell id="9r-fHAgfjosAmpNAqf8q-28" value="rut_trabajador [FK]&#xa;id_depto[FK]" style="align=left;strokeColor=none;fillColor=none;spacingLeft=4;fontSize=12;verticalAlign=top;resizable=0;rotatable=0;part=1;" vertex="1" parent="9r-fHAgfjosAmpNAqf8q-27">
          <mxGeometry y="30" width="200" height="40" as="geometry" />
        </mxCell>
        <mxCell id="9r-fHAgfjosAmpNAqf8q-30" style="edgeStyle=orthogonalEdgeStyle;rounded=0;orthogonalLoop=1;jettySize=auto;html=1;exitX=0.5;exitY=1;exitDx=0;exitDy=0;fontSize=14;" edge="1" parent="9r-fHAgfjosAmpNAqf8q-27" source="9r-fHAgfjosAmpNAqf8q-28" target="9r-fHAgfjosAmpNAqf8q-28">
          <mxGeometry relative="1" as="geometry" />
        </mxCell>
        <mxCell id="9r-fHAgfjosAmpNAqf8q-32" value="Trabajador" style="whiteSpace=wrap;html=1;align=center;fontSize=14;" vertex="1" parent="1">
          <mxGeometry x="146" y="320" width="100" height="40" as="geometry" />
        </mxCell>
        <mxCell id="9r-fHAgfjosAmpNAqf8q-33" value="departamento" style="whiteSpace=wrap;html=1;align=center;fontSize=14;" vertex="1" parent="1">
          <mxGeometry x="560" y="320" width="100" height="40" as="geometry" />
        </mxCell>
        <mxCell id="9r-fHAgfjosAmpNAqf8q-35" value="&lt;font style=&quot;font-size: 12px&quot;&gt;Liquidaciones&lt;/font&gt;" style="shape=rhombus;perimeter=rhombusPerimeter;whiteSpace=wrap;html=1;align=center;fontSize=14;" vertex="1" parent="1">
          <mxGeometry x="360" y="314.5" width="100" height="51" as="geometry" />
        </mxCell>
        <mxCell id="9r-fHAgfjosAmpNAqf8q-36" value="Rut" style="ellipse;whiteSpace=wrap;html=1;align=center;fontSize=14;" vertex="1" parent="1">
          <mxGeometry x="60" y="240" width="86" height="40" as="geometry" />
        </mxCell>
        <mxCell id="9r-fHAgfjosAmpNAqf8q-37" value="direccion" style="ellipse;whiteSpace=wrap;html=1;align=center;fontSize=14;" vertex="1" parent="1">
          <mxGeometry x="260" y="240" width="100" height="40" as="geometry" />
        </mxCell>
        <mxCell id="9r-fHAgfjosAmpNAqf8q-38" value="nombre" style="ellipse;whiteSpace=wrap;html=1;align=center;fontSize=14;" vertex="1" parent="1">
          <mxGeometry x="152" y="240" width="100" height="40" as="geometry" />
        </mxCell>
        <mxCell id="9r-fHAgfjosAmpNAqf8q-39" value="nombre_depto" style="ellipse;whiteSpace=wrap;html=1;align=center;fontSize=14;" vertex="1" parent="1">
          <mxGeometry x="600" y="230" width="100" height="40" as="geometry" />
        </mxCell>
        <mxCell id="9r-fHAgfjosAmpNAqf8q-44" value="" style="endArrow=none;html=1;fontSize=14;exitX=0.5;exitY=0;exitDx=0;exitDy=0;" edge="1" parent="1" source="9r-fHAgfjosAmpNAqf8q-32">
          <mxGeometry width="50" height="50" relative="1" as="geometry">
            <mxPoint x="245" y="330" as="sourcePoint" />
            <mxPoint x="295" y="280" as="targetPoint" />
          </mxGeometry>
        </mxCell>
        <mxCell id="9r-fHAgfjosAmpNAqf8q-45" value="" style="endArrow=none;html=1;fontSize=14;entryX=0.5;entryY=1;entryDx=0;entryDy=0;" edge="1" parent="1" target="9r-fHAgfjosAmpNAqf8q-36">
          <mxGeometry width="50" height="50" relative="1" as="geometry">
            <mxPoint x="195" y="320" as="sourcePoint" />
            <mxPoint x="245" y="270" as="targetPoint" />
          </mxGeometry>
        </mxCell>
        <mxCell id="9r-fHAgfjosAmpNAqf8q-46" value="" style="endArrow=none;html=1;fontSize=14;entryX=0.5;entryY=1;entryDx=0;entryDy=0;" edge="1" parent="1" target="9r-fHAgfjosAmpNAqf8q-38">
          <mxGeometry width="50" height="50" relative="1" as="geometry">
            <mxPoint x="195" y="320" as="sourcePoint" />
            <mxPoint x="245" y="270" as="targetPoint" />
          </mxGeometry>
        </mxCell>
        <mxCell id="9r-fHAgfjosAmpNAqf8q-47" value="" style="endArrow=none;html=1;fontSize=14;entryX=0.5;entryY=1;entryDx=0;entryDy=0;" edge="1" parent="1" target="9r-fHAgfjosAmpNAqf8q-39">
          <mxGeometry width="50" height="50" relative="1" as="geometry">
            <mxPoint x="610" y="320" as="sourcePoint" />
            <mxPoint x="660" y="270" as="targetPoint" />
          </mxGeometry>
        </mxCell>
        <mxCell id="9r-fHAgfjosAmpNAqf8q-48" value="" style="endArrow=none;html=1;fontSize=14;exitX=1;exitY=0.5;exitDx=0;exitDy=0;entryX=0;entryY=0.5;entryDx=0;entryDy=0;" edge="1" parent="1" source="9r-fHAgfjosAmpNAqf8q-32" target="9r-fHAgfjosAmpNAqf8q-35">
          <mxGeometry width="50" height="50" relative="1" as="geometry">
            <mxPoint x="390" y="340" as="sourcePoint" />
            <mxPoint x="440" y="290" as="targetPoint" />
          </mxGeometry>
        </mxCell>
        <mxCell id="9r-fHAgfjosAmpNAqf8q-49" value="" style="endArrow=none;html=1;fontSize=14;entryX=0;entryY=0.5;entryDx=0;entryDy=0;exitX=1;exitY=0.5;exitDx=0;exitDy=0;" edge="1" parent="1" source="9r-fHAgfjosAmpNAqf8q-35" target="9r-fHAgfjosAmpNAqf8q-33">
          <mxGeometry width="50" height="50" relative="1" as="geometry">
            <mxPoint x="460" y="330" as="sourcePoint" />
            <mxPoint x="510" y="280" as="targetPoint" />
          </mxGeometry>
        </mxCell>
        <mxCell id="9r-fHAgfjosAmpNAqf8q-51" value="Modelo&amp;nbsp; lÃ³gico" style="text;html=1;align=center;verticalAlign=middle;resizable=0;points=[];autosize=1;fontSize=16;fontStyle=1" vertex="1" parent="1">
          <mxGeometry x="45" y="410" width="130" height="20" as="geometry" />
        </mxCell>
        <mxCell id="9r-fHAgfjosAmpNAqf8q-53" value="&lt;div&gt;id&lt;/div&gt;" style="ellipse;whiteSpace=wrap;html=1;align=center;fontSize=14;" vertex="1" parent="1">
          <mxGeometry x="490" y="230" width="100" height="40" as="geometry" />
        </mxCell>
        <mxCell id="9r-fHAgfjosAmpNAqf8q-54" value="" style="endArrow=none;html=1;fontSize=14;entryX=0.5;entryY=1;entryDx=0;entryDy=0;" edge="1" parent="1" target="9r-fHAgfjosAmpNAqf8q-53">
          <mxGeometry width="50" height="50" relative="1" as="geometry">
            <mxPoint x="610" y="320" as="sourcePoint" />
            <mxPoint x="660" y="270" as="targetPoint" />
          </mxGeometry>
        </mxCell>
        <mxCell id="9r-fHAgfjosAmpNAqf8q-55" value="" style="endArrow=none;html=1;rounded=0;dashed=1;dashPattern=1 2;fontSize=14;" edge="1" parent="1">
          <mxGeometry relative="1" as="geometry">
            <mxPoint x="200" y="530" as="sourcePoint" />
            <mxPoint x="280" y="530" as="targetPoint" />
          </mxGeometry>
        </mxCell>
        <mxCell id="9r-fHAgfjosAmpNAqf8q-56" value="N" style="resizable=0;html=1;align=right;verticalAlign=bottom;" connectable="0" vertex="1" parent="9r-fHAgfjosAmpNAqf8q-55">
          <mxGeometry x="1" relative="1" as="geometry" />
        </mxCell>
        <mxCell id="9r-fHAgfjosAmpNAqf8q-57" value="" style="endArrow=none;html=1;rounded=0;fontSize=14;exitX=1;exitY=0.25;exitDx=0;exitDy=0;" edge="1" parent="1" source="9r-fHAgfjosAmpNAqf8q-28">
          <mxGeometry relative="1" as="geometry">
            <mxPoint x="460" y="524.5" as="sourcePoint" />
            <mxPoint x="546" y="520" as="targetPoint" />
          </mxGeometry>
        </mxCell>
        <mxCell id="9r-fHAgfjosAmpNAqf8q-58" value="M" style="resizable=0;html=1;align=left;verticalAlign=bottom;" connectable="0" vertex="1" parent="9r-fHAgfjosAmpNAqf8q-57">
          <mxGeometry x="-1" relative="1" as="geometry" />
        </mxCell>
        <mxCell id="9r-fHAgfjosAmpNAqf8q-59" value="N" style="resizable=0;html=1;align=right;verticalAlign=bottom;" connectable="0" vertex="1" parent="9r-fHAgfjosAmpNAqf8q-57">
          <mxGeometry x="1" relative="1" as="geometry" />
        </mxCell>
        <mxCell id="9r-fHAgfjosAmpNAqf8q-60" value="Modelo&amp;nbsp; fÃ­sico" style="text;html=1;align=center;verticalAlign=middle;resizable=0;points=[];autosize=1;fontSize=16;fontStyle=1" vertex="1" parent="1">
          <mxGeometry x="43" y="620" width="120" height="20" as="geometry" />
        </mxCell>
        <mxCell id="9r-fHAgfjosAmpNAqf8q-61" value="trabajador" style="swimlane;fontStyle=0;childLayout=stackLayout;horizontal=1;startSize=26;horizontalStack=0;resizeParent=1;resizeParentMax=0;resizeLast=0;collapsible=1;marginBottom=0;align=center;fontSize=14;" vertex="1" parent="1">
          <mxGeometry x="40" y="660" width="210" height="116" as="geometry" />
        </mxCell>
        <mxCell id="9r-fHAgfjosAmpNAqf8q-62" value="nombre VARCHAR(50) NOT NULL" style="text;strokeColor=none;fillColor=none;spacingLeft=4;spacingRight=4;overflow=hidden;rotatable=0;points=[[0,0.5],[1,0.5]];portConstraint=eastwest;fontSize=12;" vertex="1" parent="9r-fHAgfjosAmpNAqf8q-61">
          <mxGeometry y="26" width="210" height="30" as="geometry" />
        </mxCell>
        <mxCell id="9r-fHAgfjosAmpNAqf8q-63" value="rut VARCHAR(10) UNIQUE [PK]" style="text;strokeColor=none;fillColor=none;spacingLeft=4;spacingRight=4;overflow=hidden;rotatable=0;points=[[0,0.5],[1,0.5]];portConstraint=eastwest;fontSize=12;" vertex="1" parent="9r-fHAgfjosAmpNAqf8q-61">
          <mxGeometry y="56" width="210" height="30" as="geometry" />
        </mxCell>
        <mxCell id="9r-fHAgfjosAmpNAqf8q-65" value="direccion VARCHAR(250)" style="text;strokeColor=none;fillColor=none;spacingLeft=4;spacingRight=4;overflow=hidden;rotatable=0;points=[[0,0.5],[1,0.5]];portConstraint=eastwest;fontSize=12;" vertex="1" parent="9r-fHAgfjosAmpNAqf8q-61">
          <mxGeometry y="86" width="210" height="30" as="geometry" />
        </mxCell>
        <mxCell id="9r-fHAgfjosAmpNAqf8q-66" value="liquidaciones" style="swimlane;fontStyle=0;childLayout=stackLayout;horizontal=1;startSize=26;horizontalStack=0;resizeParent=1;resizeParentMax=0;resizeLast=0;collapsible=1;marginBottom=0;align=center;fontSize=14;" vertex="1" parent="1">
          <mxGeometry x="302" y="660" width="180" height="86" as="geometry" />
        </mxCell>
        <mxCell id="9r-fHAgfjosAmpNAqf8q-67" value="rut_trabajador [FK] NOT NULL" style="text;strokeColor=none;fillColor=none;spacingLeft=4;spacingRight=4;overflow=hidden;rotatable=0;points=[[0,0.5],[1,0.5]];portConstraint=eastwest;fontSize=12;" vertex="1" parent="9r-fHAgfjosAmpNAqf8q-66">
          <mxGeometry y="26" width="180" height="30" as="geometry" />
        </mxCell>
        <mxCell id="9r-fHAgfjosAmpNAqf8q-68" value="id_depto[FK]" style="text;strokeColor=none;fillColor=none;spacingLeft=4;spacingRight=4;overflow=hidden;rotatable=0;points=[[0,0.5],[1,0.5]];portConstraint=eastwest;fontSize=12;" vertex="1" parent="9r-fHAgfjosAmpNAqf8q-66">
          <mxGeometry y="56" width="180" height="30" as="geometry" />
        </mxCell>
        <mxCell id="9r-fHAgfjosAmpNAqf8q-70" value="departamento" style="swimlane;fontStyle=0;childLayout=stackLayout;horizontal=1;startSize=26;horizontalStack=0;resizeParent=1;resizeParentMax=0;resizeLast=0;collapsible=1;marginBottom=0;align=center;fontSize=14;" vertex="1" parent="1">
          <mxGeometry x="540" y="660" width="190" height="86" as="geometry" />
        </mxCell>
        <mxCell id="9r-fHAgfjosAmpNAqf8q-72" value="id_depto SERIAL [PK]" style="text;strokeColor=none;fillColor=none;spacingLeft=4;spacingRight=4;overflow=hidden;rotatable=0;points=[[0,0.5],[1,0.5]];portConstraint=eastwest;fontSize=12;" vertex="1" parent="9r-fHAgfjosAmpNAqf8q-70">
          <mxGeometry y="26" width="190" height="30" as="geometry" />
        </mxCell>
        <mxCell id="9r-fHAgfjosAmpNAqf8q-71" value="nombre_depto VARCHAR(100) " style="text;strokeColor=none;fillColor=none;spacingLeft=4;spacingRight=4;overflow=hidden;rotatable=0;points=[[0,0.5],[1,0.5]];portConstraint=eastwest;fontSize=12;" vertex="1" parent="9r-fHAgfjosAmpNAqf8q-70">
          <mxGeometry y="56" width="190" height="30" as="geometry" />
        </mxCell>
      </root>
    </mxGraphModel>
  </diagram>
</mxfile>
